<svg width="114" height="114" viewBox="0 0 114 114" fill="none" xmlns="http://www.w3.org/2000/svg">
<g id="Nintendo_Switch_logo logo" clip-path="url(#clip0_70_22)">
<path id="Vector" d="M0 0H114V114H0V0Z" fill="#E60012"/>
<path id="Vector_2" d="M51.6318 97.1513H54.3259V85.0878H51.6318V97.1513ZM37.6381 77.528L40.8148 81.7904H42.0614V75.3968H40.7746V79.619L37.6381 75.437H36.3513V81.8307H37.6381V77.528ZM52.0339 75.3968H46.6053V76.764H48.6561V81.7904H50.0233V76.764H52.0339V75.3968ZM43.7101 93.8137L41.1365 85.0476H39.0053L36.472 93.7735L34.1397 85.0476H31.5259L34.9439 97.1111H37.8392L40.091 89.1492L42.3429 97.1111H45.2381L48.6561 85.0476H46.0423L43.7101 93.8137ZM61.8455 67.5957H69.727C76.9651 67.5957 82.836 61.7248 82.836 54.4867V29.5555C82.836 22.3174 76.9651 16.4465 69.727 16.4465H61.8053C61.6042 16.4465 61.4836 16.6074 61.4836 16.7682V67.2338C61.4836 67.4349 61.6445 67.5957 61.8455 67.5957ZM71.5767 39.4074C74.4318 39.4074 76.764 41.7397 76.764 44.5947C76.764 47.4497 74.4318 49.782 71.5767 49.782C68.7217 49.782 66.3894 47.4497 66.3894 44.5947C66.4296 41.7397 68.7217 39.4074 71.5767 39.4074ZM31.5259 75.3968H30.1185V81.7904H31.5259V75.3968ZM20.8296 77.528L24.0064 81.7904H25.2529V75.3968H23.9662V79.619L20.8296 75.437H19.5429V81.8307H20.8296V77.528ZM24.6095 89.8328H24.5291C23.0413 89.5915 21.7947 89.3502 21.6741 88.5058C21.6741 88.3852 21.6741 88.1037 21.8751 87.8222C22.2773 87.3397 23.2021 87.1386 24.5693 87.1386C26.1376 87.1386 27.7058 87.7418 28.2688 87.983L29.1132 85.892C28.5101 85.6508 26.5799 84.9672 24.4487 84.9672C21.8349 84.9672 19.0603 86.2539 19.0603 88.5862C19.0603 90.4762 20.3873 91.4815 23.8455 92.0846C26.2984 92.4867 27.6254 92.728 27.5852 93.7735C27.545 94.3365 27.1027 95.3016 24.3683 95.3016C22.1566 95.3016 20.5884 94.4973 20.0656 94.1756L18.9397 96.2264C19.5429 96.5481 21.5937 97.5132 24.2074 97.5132C28.0275 97.5132 30.0783 96.1862 30.0783 93.6529C30.1185 91.8434 29.2339 90.637 24.6095 89.8328ZM39.6487 31.8074C39.6487 34.4613 41.8201 36.6328 44.4741 36.6328C47.1281 36.6328 49.2995 34.4613 49.2995 31.8074C49.2995 29.1534 47.1281 26.982 44.4741 26.982C41.7799 26.982 39.6487 29.1132 39.6487 31.8074ZM61.6847 80.6243H58.0254V79.1365H61.4032V77.9703H58.0254V76.6031H61.6847V75.437H56.6984V81.8307H61.6847V80.6243ZM91.6021 75.1957C89.7122 75.1957 88.1841 76.7238 88.1841 78.6137C88.1841 80.5037 89.7122 82.0317 91.6021 82.0317C93.4921 82.0317 95.0201 80.5037 95.0201 78.6137C94.9799 76.7238 93.4519 75.1957 91.6021 75.1957ZM91.6021 80.5841C90.5164 80.5841 89.6318 79.6994 89.6318 78.6137C89.6318 77.528 90.5164 76.6434 91.6021 76.6434C92.6879 76.6434 93.5725 77.528 93.5725 78.6137C93.5725 79.6994 92.6879 80.5841 91.6021 80.5841ZM92.0042 89.8328H86.3746V85.0878H83.8815V97.1513H86.3746V92.3259H92.0042V97.1513H94.4974V85.0878H92.0042V89.8328ZM95.5027 95.9047H96.0254V97.1513H96.3069V95.9047H96.7894V95.6232H95.5027V95.9047ZM98.2773 95.583L97.8751 96.709L97.473 95.583H97.0307V97.1111H97.3122V95.9449L97.7143 97.1111H97.9958L98.3979 95.9449V97.1111H98.6794V95.583H98.2773ZM75.8794 87.3799C77.2466 87.3799 78.4931 88.1037 79.1767 89.2698L81.1471 87.5809C79.9408 85.8116 77.9704 84.7259 75.799 84.7259C72.2603 84.7259 69.3651 87.6211 69.3651 91.1598C69.3651 94.6984 72.2603 97.5936 75.799 97.5936C77.9704 97.5936 79.9408 96.5481 81.1471 94.7386L79.1767 93.0497C78.4931 94.1756 77.2466 94.9397 75.8794 94.9397C73.7884 94.9397 72.0593 93.2508 72.0593 91.2C72.0593 89.1492 73.7482 87.3799 75.8794 87.3799ZM57.2614 87.6211H61.1217V97.1111H63.7355V87.6211H67.5154V85.0476H57.3016V87.6211H57.2614ZM72.7027 81.7904V75.3968H71.4159V79.619L68.2794 75.437H66.9926V81.8307H68.2794V77.5682L71.4561 81.8307H72.7027V81.7904ZM55.9746 16.4465H44.7958C37.5577 16.4465 31.6868 22.3174 31.6868 29.5555V54.4867C31.6868 61.7248 37.5577 67.5957 44.7958 67.5957H55.9746C56.1757 67.5957 56.3365 67.4349 56.3365 67.2338V16.8084C56.3365 16.6074 56.1757 16.4465 55.9746 16.4465ZM52.2349 63.4941H44.7958C42.3831 63.4941 40.1312 62.5693 38.4423 60.8402C36.7535 59.1513 35.7884 56.8994 35.7884 54.4867V29.5555C35.7884 27.1428 36.7132 24.891 38.4423 23.2021C40.1312 21.5132 42.3831 20.5481 44.7958 20.5481H52.2349V63.4941ZM80.745 75.3968H78.091V81.7904H80.745C82.5545 81.7904 84.0423 80.3428 84.0423 78.6137C84.0423 76.8444 82.5545 75.3968 80.745 75.3968ZM80.8254 80.4635H79.418V76.764H80.8254C81.8307 76.764 82.6751 77.6084 82.6751 78.6137C82.6751 79.619 81.8307 80.4635 80.8254 80.4635Z" fill="white"/>
</g>
<defs>
<clipPath id="clip0_70_22">
<rect width="114" height="114" fill="white"/>
</clipPath>
</defs>
</svg>
