<svg width="47" height="52" viewBox="0 0 47 52" fill="none" xmlns="http://www.w3.org/2000/svg">
<path id="Vector" d="M45.7476 28.4738C46.5495 29.1589 47 30.0881 47 31.057C47 32.0258 46.5495 32.955 45.7476 33.6402L26.4984 50.0821C25.6963 50.7671 24.6084 51.1519 23.4742 51.1519C22.3399 51.1519 21.2521 50.7671 20.4499 50.0821L1.20077 33.6402C0.421576 32.9511 -0.00958032 32.0281 0.00016628 31.0701C0.00991288 30.1121 0.45978 29.1957 1.25288 28.5183C2.04598 27.8408 3.11885 27.4566 4.24042 27.4483C5.36199 27.4399 6.44252 27.8082 7.24928 28.4738L19.1966 38.3645L19.1966 3.65376C19.1966 2.68472 19.6473 1.75537 20.4495 1.07016C21.2517 0.384948 22.3397 -9.34551e-07 23.4742 -8.91557e-07C24.6087 -8.48563e-07 25.6967 0.384948 26.4989 1.07016C27.3011 1.75537 27.7518 2.68472 27.7518 3.65376L27.7518 38.3645L39.6991 28.4738C40.5012 27.7888 41.5891 27.404 42.7233 27.404C43.8576 27.404 44.9454 27.7888 45.7476 28.4738Z" fill="white"/>
</svg>
