<svg width="150" height="816" viewBox="0 0 150 816" fill="none" xmlns="http://www.w3.org/2000/svg">
<g opacity="0.45">
<mask id="path-1-inside-1_343_64" fill="white">
<path d="M3 0.0507815H149.8V84.6508H134V18.6508H84.4V74.6508H68.8V18.6508H3V0.0507815ZM3 110.402H149.8V195.002H134V129.002H88V184.602H72.2V129.002H18.8V197.202H3V110.402ZM85 253.38L62.6 246.18V290.58L85 283.58C101.6 278.18 117.6 273.58 134.6 268.78V267.98C117.4 263.38 101.6 258.58 85 253.38ZM3 208.58L149.8 258.38V278.98L3 328.78V309.18L47.8 295.18V241.58L3 227.38V208.58ZM3 367.955H134V323.555H149.8V430.955H134V386.555H3V367.955ZM0.4 509.082C0.4 479.282 16.4 456.482 63.6 456.482H149.8V475.082H63C27.6 475.082 16.6 490.082 16.6 509.082C16.6 528.682 27.6 544.082 63 544.082H149.8V561.882H63.6C16.4 561.882 0.4 539.082 0.4 509.082ZM3 601.223H149.8V647.223C149.8 677.023 139 698.423 108.4 698.423C85.6 698.423 72 685.223 67.2 665.223L3 702.823V681.823L65.2 646.223V619.823H3V601.223ZM80.2 619.823V644.423C80.2 667.423 89.4 680.023 108.4 680.023C127.8 680.023 134.6 667.423 134.6 644.423V619.823H80.2ZM3 728.371H149.8V812.971H134V746.971H88V802.571H72.2V746.971H18.8V815.171H3V728.371Z"/>
</mask>
<path d="M3 0.0507812V-1.94922H1V0.0507812H3ZM149.8 0.0507812H151.8V-1.94922H149.8V0.0507812ZM149.8 84.6508V86.6508H151.8V84.6508H149.8ZM134 84.6508H132V86.6508H134V84.6508ZM134 18.6508H136V16.6508H134V18.6508ZM84.4 18.6508V16.6508H82.4V18.6508H84.4ZM84.4 74.6508V76.6508H86.4V74.6508H84.4ZM68.8 74.6508H66.8V76.6508H68.8V74.6508ZM68.8 18.6508H70.8V16.6508H68.8V18.6508ZM3 18.6508H1V20.6508H3V18.6508ZM3 2.05078H149.8V-1.94922H3V2.05078ZM147.8 0.0507812V84.6508H151.8V0.0507812H147.8ZM149.8 82.6508H134V86.6508H149.8V82.6508ZM136 84.6508V18.6508H132V84.6508H136ZM134 16.6508H84.4V20.6508H134V16.6508ZM82.4 18.6508V74.6508H86.4V18.6508H82.4ZM84.4 72.6508H68.8V76.6508H84.4V72.6508ZM70.8 74.6508V18.6508H66.8V74.6508H70.8ZM68.8 16.6508H3V20.6508H68.8V16.6508ZM5 18.6508V0.0507812H1V18.6508H5ZM3 110.402V108.402H1V110.402H3ZM149.8 110.402H151.8V108.402H149.8V110.402ZM149.8 195.002V197.002H151.8V195.002H149.8ZM134 195.002H132V197.002H134V195.002ZM134 129.002H136V127.002H134V129.002ZM88 129.002V127.002H86V129.002H88ZM88 184.602V186.602H90V184.602H88ZM72.2 184.602H70.2V186.602H72.2V184.602ZM72.2 129.002H74.2V127.002H72.2V129.002ZM18.8 129.002V127.002H16.8V129.002H18.8ZM18.8 197.202V199.202H20.8V197.202H18.8ZM3 197.202H1V199.202H3V197.202ZM3 112.402H149.8V108.402H3V112.402ZM147.8 110.402V195.002H151.8V110.402H147.8ZM149.8 193.002H134V197.002H149.8V193.002ZM136 195.002V129.002H132V195.002H136ZM134 127.002H88V131.002H134V127.002ZM86 129.002V184.602H90V129.002H86ZM88 182.602H72.2V186.602H88V182.602ZM74.2 184.602V129.002H70.2V184.602H74.2ZM72.2 127.002H18.8V131.002H72.2V127.002ZM16.8 129.002V197.202H20.8V129.002H16.8ZM18.8 195.202H3V199.202H18.8V195.202ZM5 197.202V110.402H1V197.202H5ZM85 253.38L84.388 255.285L84.3951 255.287L84.4021 255.289L85 253.38ZM62.6 246.18L63.212 244.276L60.6 243.437V246.18H62.6ZM62.6 290.58H60.6V293.301L63.1965 292.489L62.6 290.58ZM85 283.58L85.5966 285.489L85.6077 285.486L85.6187 285.482L85 283.58ZM134.6 268.78L135.143 270.705L136.6 270.294V268.78H134.6ZM134.6 267.98H136.6V266.445L135.117 266.048L134.6 267.98ZM3 208.58L3.64252 206.686L1 205.79V208.58H3ZM149.8 258.38H151.8V256.947L150.443 256.486L149.8 258.38ZM149.8 278.98L150.443 280.874L151.8 280.414V278.98H149.8ZM3 328.78H1V331.571L3.64252 330.674L3 328.78ZM3 309.18L2.40344 307.272L1 307.71V309.18H3ZM47.8 295.18L48.3965 297.089L49.8 296.651V295.18H47.8ZM47.8 241.58H49.8V240.116L48.4043 239.674L47.8 241.58ZM3 227.38H1V228.845L2.39571 229.287L3 227.38ZM85.612 251.476L63.212 244.276L61.988 248.085L84.388 255.285L85.612 251.476ZM60.6 246.18V290.58H64.6V246.18H60.6ZM63.1965 292.489L85.5966 285.489L84.4035 281.672L62.0034 288.672L63.1965 292.489ZM85.6187 285.482C102.179 280.095 118.146 275.504 135.143 270.705L134.057 266.856C117.054 271.657 101.021 276.266 84.3813 281.679L85.6187 285.482ZM136.6 268.78V267.98H132.6V268.78H136.6ZM135.117 266.048C117.957 261.459 102.188 256.669 85.5979 251.472L84.4021 255.289C101.012 260.492 116.843 265.302 134.083 269.913L135.117 266.048ZM2.35748 210.474L149.157 260.274L150.443 256.486L3.64252 206.686L2.35748 210.474ZM147.8 258.38V278.98H151.8V258.38H147.8ZM149.157 277.086L2.35748 326.886L3.64252 330.674L150.443 280.874L149.157 277.086ZM5 328.78V309.18H1V328.78H5ZM3.59656 311.089L48.3965 297.089L47.2034 293.272L2.40344 307.272L3.59656 311.089ZM49.8 295.18V241.58H45.8V295.18H49.8ZM48.4043 239.674L3.60429 225.474L2.39571 229.287L47.1957 243.487L48.4043 239.674ZM5 227.38V208.58H1V227.38H5ZM3 367.955V365.955H1V367.955H3ZM134 367.955V369.955H136V367.955H134ZM134 323.555V321.555H132V323.555H134ZM149.8 323.555H151.8V321.555H149.8V323.555ZM149.8 430.955V432.955H151.8V430.955H149.8ZM134 430.955H132V432.955H134V430.955ZM134 386.555H136V384.555H134V386.555ZM3 386.555H1V388.555H3V386.555ZM3 369.955H134V365.955H3V369.955ZM136 367.955V323.555H132V367.955H136ZM134 325.555H149.8V321.555H134V325.555ZM147.8 323.555V430.955H151.8V323.555H147.8ZM149.8 428.955H134V432.955H149.8V428.955ZM136 430.955V386.555H132V430.955H136ZM134 384.555H3V388.555H134V384.555ZM5 386.555V367.955H1V386.555H5ZM149.8 456.482H151.8V454.482H149.8V456.482ZM149.8 475.082V477.082H151.8V475.082H149.8ZM149.8 544.082H151.8V542.082H149.8V544.082ZM149.8 561.882V563.882H151.8V561.882H149.8ZM2.39999 509.082C2.39999 494.526 6.30193 481.983 15.679 473.056C25.0731 464.112 40.2922 458.482 63.6 458.482V454.482C39.7078 454.482 23.327 460.252 12.921 470.159C2.49808 480.081 -1.60001 493.838 -1.60001 509.082H2.39999ZM63.6 458.482H149.8V454.482H63.6V458.482ZM147.8 456.482V475.082H151.8V456.482H147.8ZM149.8 473.082H63V477.082H149.8V473.082ZM63 473.082C45.0659 473.082 32.9127 476.875 25.2265 483.436C17.4782 490.05 14.6 499.189 14.6 509.082H18.6C18.6 499.975 21.2218 492.114 27.8235 486.478C34.4873 480.79 45.5341 477.082 63 477.082V473.082ZM14.6 509.082C14.6 519.256 17.4664 528.64 25.2054 535.435C32.893 542.185 45.0556 546.082 63 546.082V542.082C45.5444 542.082 34.507 538.279 27.8446 532.429C21.2336 526.624 18.6 518.508 18.6 509.082H14.6ZM63 546.082H149.8V542.082H63V546.082ZM147.8 544.082V561.882H151.8V544.082H147.8ZM149.8 559.882H63.6V563.882H149.8V559.882ZM63.6 559.882C40.2921 559.882 25.0744 554.252 15.681 545.285C6.30376 536.334 2.39999 523.741 2.39999 509.082H-1.60001C-1.60001 524.423 2.49625 538.23 12.9191 548.179C23.3257 558.112 39.7079 563.882 63.6 563.882V559.882ZM3 601.223V599.223H1V601.223H3ZM149.8 601.223H151.8V599.223H149.8V601.223ZM67.2 665.223L69.1448 664.756L68.5156 662.134L66.1893 663.497L67.2 665.223ZM3 702.823H1V706.312L4.01074 704.548L3 702.823ZM3 681.823L2.00652 680.087L1 680.663V681.823H3ZM65.2 646.223L66.1935 647.958L67.2 647.382V646.223H65.2ZM65.2 619.823H67.2V617.823H65.2V619.823ZM3 619.823H1V621.823H3V619.823ZM80.2 619.823V617.823H78.2V619.823H80.2ZM134.6 619.823H136.6V617.823H134.6V619.823ZM3 603.223H149.8V599.223H3V603.223ZM147.8 601.223V647.223H151.8V601.223H147.8ZM147.8 647.223C147.8 661.94 145.123 674.247 138.951 682.83C132.867 691.292 123.176 696.423 108.4 696.423V700.423C124.224 700.423 135.233 694.853 142.199 685.165C149.077 675.598 151.8 662.305 151.8 647.223H147.8ZM108.4 696.423C97.4048 696.423 88.7822 693.249 82.3424 687.796C75.8864 682.33 71.4691 674.441 69.1448 664.756L65.2552 665.689C67.7309 676.005 72.5136 684.715 79.7576 690.849C87.0179 696.996 96.5953 700.423 108.4 700.423V696.423ZM66.1893 663.497L1.98926 701.097L4.01074 704.548L68.2108 666.948L66.1893 663.497ZM5 702.823V681.823H1V702.823H5ZM3.99348 683.558L66.1935 647.958L64.2065 644.487L2.00652 680.087L3.99348 683.558ZM67.2 646.223V619.823H63.2V646.223H67.2ZM65.2 617.823H3V621.823H65.2V617.823ZM5 619.823V601.223H1V619.823H5ZM78.2 619.823V644.423H82.2V619.823H78.2ZM78.2 644.423C78.2 656.138 80.5349 665.553 85.5949 672.074C90.7258 678.686 98.4197 682.023 108.4 682.023V678.023C99.3803 678.023 92.9742 675.059 88.7551 669.622C84.4651 664.093 82.2 655.707 82.2 644.423H78.2ZM108.4 682.023C118.582 682.023 125.837 678.679 130.425 671.978C134.9 665.442 136.6 656.037 136.6 644.423H132.6C132.6 655.808 130.9 664.203 127.125 669.718C123.463 675.067 117.618 678.023 108.4 678.023V682.023ZM136.6 644.423V619.823H132.6V644.423H136.6ZM134.6 617.823H80.2V621.823H134.6V617.823ZM3 728.371V726.371H1V728.371H3ZM149.8 728.371H151.8V726.371H149.8V728.371ZM149.8 812.971V814.971H151.8V812.971H149.8ZM134 812.971H132V814.971H134V812.971ZM134 746.971H136V744.971H134V746.971ZM88 746.971V744.971H86V746.971H88ZM88 802.571V804.571H90V802.571H88ZM72.2 802.571H70.2V804.571H72.2V802.571ZM72.2 746.971H74.2V744.971H72.2V746.971ZM18.8 746.971V744.971H16.8V746.971H18.8ZM18.8 815.171V817.171H20.8V815.171H18.8ZM3 815.171H1V817.171H3V815.171ZM3 730.371H149.8V726.371H3V730.371ZM147.8 728.371V812.971H151.8V728.371H147.8ZM149.8 810.971H134V814.971H149.8V810.971ZM136 812.971V746.971H132V812.971H136ZM134 744.971H88V748.971H134V744.971ZM86 746.971V802.571H90V746.971H86ZM88 800.571H72.2V804.571H88V800.571ZM74.2 802.571V746.971H70.2V802.571H74.2ZM72.2 744.971H18.8V748.971H72.2V744.971ZM16.8 746.971V815.171H20.8V746.971H16.8ZM18.8 813.171H3V817.171H18.8V813.171ZM5 815.171V728.371H1V815.171H5Z" fill="white" fill-opacity="0.45" mask="url(#path-1-inside-1_343_64)"/>
</g>
</svg>
