<svg width="572" height="121" viewBox="0 0 572 121" fill="none" xmlns="http://www.w3.org/2000/svg">
<path d="M481.625 94V26.125H492V36.75H492.875C495.75 29.5 502.25 25.25 511.125 25.25C520 25.25 526 29.5 529.25 36.75H530C533.5 29.75 540.625 25.25 550.375 25.25C562.5 25.25 571.125 32.625 571.125 48.625V94H560.375V48.75C560.375 38.75 554 34.875 546.625 34.875C537.125 34.875 531.75 41.25 531.75 49.875V94H520.875V47.625C520.875 40 515.375 34.875 507.625 34.875C499.5 34.875 492.375 41.75 492.375 51.625V94H481.625Z" fill="black"/>
<path d="M436.75 95.375C418.25 95.375 405.75 81.5 405.75 60.375C405.75 39.25 418.25 25.25 436.75 25.25C455.125 25.25 467.5 39.25 467.5 60.375C467.5 81.5 455.125 95.375 436.75 95.375ZM436.75 85.875C450.375 85.875 456.75 73.875 456.75 60.375C456.75 46.875 450.375 34.75 436.75 34.75C422.875 34.75 416.5 46.875 416.5 60.375C416.5 73.875 422.875 85.875 436.75 85.875Z" fill="black"/>
<path d="M369 95.375C349.75 95.375 338 80.75 338 60.375C338 39.75 350.25 25.25 368.75 25.25C383.25 25.25 394 33.75 395.75 46.625H385C383.5 40.375 378 34.75 369 34.75C356.875 34.75 348.75 44.75 348.75 60C348.75 75.75 356.625 85.75 369 85.75C377 85.75 383.125 81.5 385 74H395.75C394 86.125 384.125 95.375 369 95.375Z" fill="black"/>
<path d="M316.375 94.75C312 94.75 308.25 91.125 308.375 86.625C308.25 82.25 312 78.625 316.375 78.625C320.75 78.625 324.375 82.25 324.375 86.625C324.375 91.125 320.75 94.75 316.375 94.75Z" fill="black"/>
<path d="M291.625 3.5V94H280.875V3.5H291.625Z" fill="black"/>
<path d="M253 94V26.125H263.75V94H253ZM258.375 14.875C254.25 14.875 250.875 11.75 250.875 7.75C250.875 3.75 254.25 0.625 258.375 0.625C262.5 0.625 266 3.75 266 7.75C266 11.75 262.5 14.875 258.375 14.875Z" fill="black"/>
<path d="M181.25 74.75C181.25 59.125 195 55.625 206.75 54.75C211.062 54.4375 222.062 53.875 225.125 53.75V48.25C225.125 39.625 220 34.625 209.75 34.625C201.125 34.625 196 38.625 194.5 43.75H183.25C184.625 32.875 195.25 25.25 210.25 25.25C219.125 25.25 235.75 27.875 235.75 49.25V94H225.125V84.75H224.625C222.375 89.375 216.125 95.625 204.375 95.625C191.5 95.625 181.25 88 181.25 74.75ZM192 75.25C192 82.375 198 86 206.25 86C218.375 86 225.125 77.875 225.125 69.375V62.5L208 63.75C198.25 64.375 192 67.875 192 75.25Z" fill="black"/>
<path d="M77.75 94V26.125H88.125V36.75H89C91.875 29.5 98.375 25.25 107.25 25.25C116.125 25.25 122.125 29.5 125.375 36.75H126.125C129.625 29.75 136.75 25.25 146.5 25.25C158.625 25.25 167.25 32.625 167.25 48.625V94H156.5V48.75C156.5 38.75 150.125 34.875 142.75 34.875C133.25 34.875 127.875 41.25 127.875 49.875V94H117V47.625C117 40 111.5 34.875 103.75 34.875C95.625 34.875 88.5 41.75 88.5 51.625V94H77.75Z" fill="black"/>
<path d="M31.125 120.875C14.75 120.875 3.625 113.75 2.375 101.125H13.625C15.125 108 21.5 111.5 31.125 111.5C42.75 111.5 49.875 106.5 49.875 95.25V81.5H49C46.75 85.25 42.375 93 29.25 93C12.75 93 0.375 80.5 0.375 59.125C0.375 38.25 12.375 25.25 29.375 25.25C42.5 25.25 46.75 33.25 49.25 36.875H50.125V26.125H60.625V95.875C60.625 113.375 47.625 120.875 31.125 120.875ZM30.75 83.375C43.125 83.375 50.125 74.5 50.125 59.5C50.125 45 43.375 34.875 30.75 34.875C17.75 34.875 11.25 45.875 11.25 59.5C11.25 73.625 17.875 83.375 30.75 83.375Z" fill="black"/>
</svg>
