<svg width="706" height="94" viewBox="0 0 706 94" fill="none" xmlns="http://www.w3.org/2000/svg">
<path d="M674.25 93.25C656.25 93.25 643.375 83.625 642.75 69.25H654.125C654.75 77.875 663.375 83.25 674.125 83.25C686 83.25 694.75 76.75 694.75 67.375C694.75 57.5 686.875 50.5 672.75 50.5H665.375V40.625H672.75C683.75 40.625 691.375 34.5 691.375 25.125C691.375 16.125 684.75 10 674.5 10C664.875 10 656 15.375 655.5 24.25H644.625C645.25 9.875 658.5 0.25 674.625 0.25C691.875 0.25 702.375 11.5 702.25 24.5C702.375 34.75 696.375 42.375 686.875 45V45.625C698.625 47.5 705.875 55.875 705.75 67.375C705.875 82.25 692.25 93.25 674.25 93.25Z" fill="black"/>
<path d="M535.375 1.5H548.875L579.375 76H580.5L611 1.5H624.5V92H613.875V23.625H613L584.875 92H574.875L546.75 23.625H546V92H535.375V1.5Z" fill="black"/>
<path d="M456.75 92H445L478.125 1.5H490L523.125 92H511.25L502.25 66.5H465.875L456.75 92ZM469.25 56.625H498.75L484.375 16.125H483.625L469.25 56.625Z" fill="black"/>
<path d="M343.625 1.5H357.125L387.625 76H388.75L419.25 1.5H432.75V92H422.125V23.625H421.25L393.125 92H383.125L355 23.625H354.25V92H343.625V1.5Z" fill="black"/>
<path d="M253.25 92V1.5H264.5V41.75H312.375V1.5H323.75V92H312.375V51.625H264.5V92H253.25Z" fill="black"/>
<path d="M224.25 29.75C220.375 18.125 211.5 10.75 198.625 10.75C182.625 10.75 169.875 23.375 169.875 46.75C169.875 70.125 182.625 82.75 199.375 82.75C214.688 82.75 225.125 72.5 225.375 56.5H201.75V46.625H236.375V56.375C236.375 78.875 220.875 93.25 199.375 93.25C175.25 93.25 159 75.375 159 46.75C159 18.125 175.375 0.25 198.625 0.25C217.75 0.25 232.5 12.25 235.875 29.75H224.25Z" fill="black"/>
<path d="M87.625 92V83.875L136.25 11.5H87.125V1.5H149.75V9.625L101.125 82H150.25V92H87.625Z" fill="black"/>
<path d="M12 92H0.25L33.375 1.5H45.25L78.375 92H66.5L57.5 66.5H21.125L12 92ZM24.5 56.625H54L39.625 16.125H38.875L24.5 56.625Z" fill="black"/>
</svg>
