<svg width="118" height="140" viewBox="0 0 118 140" fill="none" xmlns="http://www.w3.org/2000/svg">
<path d="M31.329 31.5099C31.355 31.4271 31.3739 31.3423 31.3852 31.2562L35.1895 2.52443C35.5264 2.90454 35.8971 3.37978 36.2976 3.95018C37.5747 5.76929 39.0031 8.33701 40.4497 11.2547C43.336 17.0759 46.1947 24.0838 47.9438 28.7612C48.163 29.3473 48.723 29.7358 49.3488 29.7358C64.4207 29.7358 79.5947 33.2665 85.2496 35.0185C85.4474 35.0798 85.6558 35.0995 85.8615 35.0763C91.106 34.4851 97.4501 34.675 103.216 35.3625C108.018 35.935 112.285 36.8369 115.133 37.8548C107.781 49.0122 99.0736 56.864 95.5871 59.4234C95.0624 59.8086 94.846 60.4881 95.0513 61.1058C95.0506 61.1037 95.0502 61.1026 95.0502 61.1026C95.05 61.1026 95.0595 61.135 95.0763 61.2156C95.0945 61.3029 95.116 61.4205 95.1402 61.5716C95.1888 61.8738 95.2432 62.2751 95.3026 62.7722C95.4213 63.7647 95.555 65.0947 95.6994 66.6887C95.988 69.874 96.3158 74.0739 96.6486 78.6525C97.314 87.8076 97.9971 98.4492 98.423 105.455C98.4711 106.247 99.1271 106.864 99.9202 106.864H108.187C107.206 108.311 105.854 109.748 104.371 111.069C102.212 112.992 99.9235 114.539 98.5029 115.36C98.092 115.597 97.8177 116.015 97.7632 116.486C97.7088 116.958 97.8807 117.427 98.2267 117.752C99.9436 119.364 100.997 122.254 101.536 125.508C101.979 128.188 102.039 130.901 101.942 132.872C83.454 137.685 62.2603 138.21 44.6948 137.229C26.7684 136.228 12.8349 133.673 9.57564 132.618C8.94251 132.414 8.39108 131.825 8.10788 130.367C7.82419 128.907 7.8979 126.92 8.2512 124.634C8.95335 120.089 10.6771 114.857 12.0612 111.423C12.2147 111.043 12.2054 110.616 12.0356 110.242C11.8658 109.868 11.5503 109.581 11.1626 109.446C7.73801 108.255 4.16104 105.38 2.11571 103.433C3.07092 102.729 4.49138 102.132 6.19348 101.679C8.47005 101.073 10.8818 100.817 12.3838 100.77C12.8056 100.757 13.2024 100.567 13.4768 100.246C13.7512 99.9257 13.8778 99.5043 13.8256 99.0855C13.7413 98.4091 13.806 97.157 14.0664 95.3125C14.3207 93.5115 14.7416 91.2743 15.297 88.6994C16.4072 83.5521 18.0388 77.1307 19.8976 70.2958C23.6143 56.6299 28.2207 41.3802 31.329 31.5099Z" fill="#D9D9D9" stroke="black" stroke-width="3" stroke-linejoin="round"/>
<path d="M28.721 54.8368C28.2764 60.5335 30.9217 68.1225 45.0595 52.9049" stroke="black" stroke-width="3" stroke-linecap="round" stroke-linejoin="round"/>
<path d="M70.8447 55.58C72.3637 61.6234 78.047 72.4323 88.6281 67.3201" stroke="black" stroke-width="3" stroke-linecap="round" stroke-linejoin="round"/>
<ellipse cx="57.3969" cy="60.1867" rx="5.11271" ry="6.83603" fill="black"/>
</svg>
