<svg width="46" height="46" viewBox="0 0 46 46" fill="none" xmlns="http://www.w3.org/2000/svg">
<g filter="url(#filter0_d_674_14)">
<rect width="46" height="46" rx="23" fill="white" shape-rendering="crispEdges"/>
<path d="M17.2929 27.2929C16.9024 27.6834 16.9024 28.3166 17.2929 28.7071C17.6834 29.0976 18.3166 29.0976 18.7071 28.7071L17.2929 27.2929ZM29 18C29 17.4477 28.5523 17 28 17L19 17C18.4477 17 18 17.4477 18 18C18 18.5523 18.4477 19 19 19L27 19L27 27C27 27.5523 27.4477 28 28 28C28.5523 28 29 27.5523 29 27L29 18ZM18.7071 28.7071L28.7071 18.7071L27.2929 17.2929L17.2929 27.2929L18.7071 28.7071Z" fill="black"/>
</g>
<defs>
<filter id="filter0_d_674_14" x="-4" y="-2" width="54" height="54" filterUnits="userSpaceOnUse" color-interpolation-filters="sRGB">
<feFlood flood-opacity="0" result="BackgroundImageFix"/>
<feColorMatrix in="SourceAlpha" type="matrix" values="0 0 0 0 0 0 0 0 0 0 0 0 0 0 0 0 0 0 127 0" result="hardAlpha"/>
<feOffset dy="2"/>
<feGaussianBlur stdDeviation="2"/>
<feComposite in2="hardAlpha" operator="out"/>
<feColorMatrix type="matrix" values="0 0 0 0 0 0 0 0 0 0 0 0 0 0 0 0 0 0 0.25 0"/>
<feBlend mode="normal" in2="BackgroundImageFix" result="effect1_dropShadow_674_14"/>
<feBlend mode="normal" in="SourceGraphic" in2="effect1_dropShadow_674_14" result="shape"/>
</filter>
</defs>
</svg>
