<svg width="178" height="91" viewBox="0 0 178 91" fill="none" xmlns="http://www.w3.org/2000/svg">
<path d="M5.33029 91C-9.66971 57.5 13.2503 18 33.7503 45L5.33029 91Z" fill="white"/>
<path d="M177.5 91C175.493 83.1479 171.828 75.8168 166.75 69.5C171.75 62 177.25 31 172.25 30.5C168.25 30.1 156.92 36 151.75 39C137.75 26.2 104.51 18.17 92.0101 16.5C93.5101 10.5 90.0101 0.5 86.7501 0.5C82.5101 0.5 73.0101 9.5 71.2501 16.5C47.6501 19.7 33.1701 33.33 29.0001 39.5L10.6001 70.5L5.33008 91H177.1" fill="white"/>
<path d="M5.33029 91C-9.66971 57.5 13.2503 18 33.7503 45" stroke="black" stroke-linecap="round"/>
<path d="M29 39.5C33.17 33.33 47.65 19.7 71.25 16.5C73.01 9.5 82.51 0.5 86.75 0.5C90.01 0.5 93.51 10.5 92.01 16.5C104.51 18.17 137.75 26.2 151.75 39C156.92 36 168.25 30.1 172.25 30.5C177.25 31 171.75 62 166.75 69.5C171.827 75.8168 175.493 83.1479 177.5 91" stroke="black" stroke-linecap="round"/>
</svg>
