<svg width="108" height="144" viewBox="0 0 108 144" fill="none" xmlns="http://www.w3.org/2000/svg">
<path d="M77.1969 3.60705L95.7927 117.937H106.583L98.5477 128.957L98.0885 136.304C98.0885 136.304 59.7489 149.619 1.895 137.681C1.895 137.681 -2.00784 77.0723 6.48657 2L22.7867 36.896C22.7867 36.896 38.1685 38.0439 65.4883 37.3551C65.4883 37.3551 68.7024 24.7283 77.1969 3.60705Z" fill="#D7C0C5" stroke="#0C0C0C" stroke-miterlimit="10"/>
<path d="M26.9192 63.2976C28.2967 68.5779 24.9586 71.9252 20.7206 72.7103C14.522 73.8582 8.09375 71.5119 8.09375 67.2004C8.09375 62.8889 13.8837 56.8694 18.1952 56.8694C22.5067 56.8694 25.831 59.1261 26.9192 63.2976Z" fill="#FBF1CE" stroke="#4E353D" stroke-miterlimit="10"/>
<path d="M75.59 64.6749C76.9674 69.9553 77.5322 74.9096 73.2942 75.6947C67.0956 76.8426 60.7201 73.5688 58.3716 69.9553C55.387 65.3637 59.1406 58.8023 63.1927 57.3284C68.2434 55.4918 74.5018 60.5035 75.59 64.6749Z" fill="#FBF1CE" stroke="#4E353D" stroke-miterlimit="10"/>
<path d="M35.4131 69.7257L44.8258 66.7412L42.0709 85.3371L35.4131 69.7257Z" fill="#4E353D"/>
<path d="M5.56836 104.392C5.56836 104.392 8.09373 117.708 11.767 116.101C15.4403 114.494 17.736 105.31 17.736 105.31" stroke="black" stroke-miterlimit="10"/>
<path d="M65.2588 107.836C65.2588 107.836 69.8504 120.922 72.3757 118.167C74.9011 115.412 79.0335 105.311 79.0335 105.311" stroke="black" stroke-miterlimit="10"/>
</svg>
