<svg width="106" height="141" viewBox="0 0 106 141" fill="none" xmlns="http://www.w3.org/2000/svg">
<path d="M76.1969 1.60705L94.7927 115.937H105.583L97.5477 126.957L97.0885 134.304C97.0885 134.304 58.7489 147.619 0.894998 135.681C0.894998 135.681 -3.00784 75.0723 5.48657 0L21.7867 34.896C21.7867 34.896 37.1685 36.0439 64.4883 35.3551C64.4883 35.3551 67.7024 22.7283 76.1969 1.60705Z" fill="#D7C0C5" stroke="#0C0C0C" stroke-miterlimit="10"/>
<path d="M25.9192 61.2976C27.2967 66.5779 23.9586 69.9252 19.7206 70.7103C13.522 71.8582 7.09375 69.5119 7.09375 65.2004C7.09375 60.8889 12.8837 54.8694 17.1952 54.8694C21.5067 54.8694 24.831 57.1261 25.9192 61.2976Z" fill="#FBF1CE" stroke="#4E353D" stroke-miterlimit="10"/>
<path d="M74.59 62.6749C75.9674 67.9553 76.5322 72.9096 72.2942 73.6947C66.0956 74.8426 59.7201 71.5688 57.3716 67.9553C54.387 63.3637 58.1406 56.8023 62.1927 55.3284C67.2434 53.4918 73.5018 58.5035 74.59 62.6749Z" fill="#FBF1CE" stroke="#4E353D" stroke-miterlimit="10"/>
<path d="M34.4131 67.7257L43.8258 64.7412L41.0709 83.3371L34.4131 67.7257Z" fill="#4E353D"/>
<path d="M4.56836 102.392C4.56836 102.392 7.09373 115.708 10.767 114.101C14.4403 112.494 16.736 103.31 16.736 103.31" stroke="black" stroke-miterlimit="10"/>
<path d="M64.2588 105.836C64.2588 105.836 68.8504 118.922 71.3757 116.167C73.9011 113.412 78.0335 103.311 78.0335 103.311" stroke="black" stroke-miterlimit="10"/>
</svg>
