<svg width="118" height="115" viewBox="0 0 118 115" fill="none" xmlns="http://www.w3.org/2000/svg">
<path d="M55.8962 8.33087C56.8198 5.62137 60.6519 5.62136 61.5754 8.33087L69.7765 32.3915C70.3172 33.9778 72.0525 34.8135 73.6298 34.2472L97.5545 25.6575C100.249 24.6902 102.638 27.6862 101.095 30.0976L87.3973 51.5111C86.4942 52.9228 86.9228 54.8006 88.349 55.6807L109.981 69.0302C112.418 70.5335 111.565 74.2695 108.718 74.567L83.4354 77.2084C81.7686 77.3826 80.5677 78.8885 80.7688 80.5522L83.8194 105.788C84.163 108.63 80.7104 110.293 78.7027 108.253L60.8742 90.133C59.6989 88.9384 57.7728 88.9384 56.5974 90.133L38.7689 108.253C36.7612 110.293 33.3086 108.63 33.6522 105.788L36.7028 80.5522C36.9039 78.8885 35.703 77.3826 34.0362 77.2084L8.75387 74.567C5.9068 74.2695 5.05407 70.5335 7.49013 69.0302L29.1226 55.6807C30.5488 54.8006 30.9774 52.9228 30.0743 51.5111L16.3762 30.0976C14.8337 27.6862 17.2229 24.6902 19.9171 25.6575L43.8418 34.2472C45.4191 34.8135 47.1545 33.9778 47.6951 32.3915L55.8962 8.33087Z" fill="#FFCC00"/>
</svg>
