<svg width="64" height="73" viewBox="0 0 64 73" fill="none" xmlns="http://www.w3.org/2000/svg">
<path fill-rule="evenodd" clip-rule="evenodd" d="M62.8778 0H0.614547C0.0342999 0.454644 -0.0453065 1.04904 0.0183792 1.75312C0.690617 9.11766 1.34339 16.4822 1.99617 23.8485C2.26966 26.9378 2.54044 30.0275 2.81123 33.1173C3.12022 36.6429 3.42921 40.1685 3.74222 43.6936C4.2435 49.3408 4.75096 54.9868 5.25841 60.6325C5.35804 61.741 5.45767 62.8495 5.55726 63.958C5.64394 64.9169 6.15342 65.4918 7.16001 65.7731C9.98971 66.5615 12.821 67.3484 15.6522 68.1353C17.0708 68.5295 18.4894 68.9238 19.9077 69.3182C20.6221 69.5166 21.3364 69.7148 22.0507 69.9131C24.7505 70.6623 27.4498 71.4114 30.147 72.1682C30.1898 72.1799 30.2355 72.1879 30.2819 72.196C30.4389 72.2236 30.6036 72.2525 30.6883 72.43H32.6643C34.1395 71.9271 35.6425 71.5245 37.1458 71.1217C37.7843 70.9507 38.4229 70.7796 39.0594 70.6008C42.916 69.5193 46.7757 68.4504 50.6354 67.3815C52.5652 66.8471 54.495 66.3126 56.4244 65.7766C57.5389 65.467 57.9847 64.8797 58.089 63.7086C58.3502 60.7663 58.6159 57.8246 58.8815 54.8827C59.1179 52.2653 59.3542 49.6479 59.5874 47.0301C59.8115 44.5189 60.032 42.0072 60.2525 39.4953C60.4707 37.0101 60.689 34.5246 60.9107 32.0392C61.1345 29.5285 61.3614 27.0183 61.5883 24.5081C61.8152 21.9986 62.042 19.4892 62.2658 16.9793C62.45 14.9099 62.6321 12.8402 62.8141 10.7705C63.0881 7.65454 63.3621 4.53867 63.6438 1.42408C63.704 0.750075 63.4209 0.320197 62.8778 0Z" fill="#108A31"/>
</svg>
