<svg width="60" height="61" viewBox="0 0 60 61" fill="none" xmlns="http://www.w3.org/2000/svg">
<path fill-rule="evenodd" clip-rule="evenodd" d="M54.9519 30.5C58.0774 33.7378 60 38.1444 60 43C60 52.9411 51.9411 61 42 61C37.3899 61 33.1845 59.2669 30 56.4166C26.8155 59.2669 22.6101 61 18 61C8.05887 61 0 52.9411 0 43C0 38.1444 1.92263 33.7378 5.04814 30.5C1.92263 27.2622 0 22.8556 0 18C0 8.05887 8.05887 0 18 0C22.6101 0 26.8155 1.73312 30 4.58336C33.1845 1.73312 37.3899 0 42 0C51.9411 0 60 8.05887 60 18C60 22.8556 58.0774 27.2622 54.9519 30.5Z" fill="#108A31"/>
</svg>
