<svg width="62" height="64" viewBox="0 0 62 64" fill="none" xmlns="http://www.w3.org/2000/svg">
<path fill-rule="evenodd" clip-rule="evenodd" d="M7.91992 0.189108C3.63477 -0.887552 0 2.79128 0 7.20962V31.7096V56.2096C0 60.6278 3.63477 64.3067 7.91992 63.23C13.5723 61.8095 18.79 58.8814 22.9814 54.6906C25.4375 52.2339 27.4609 49.4246 29 46.3815V56.2096C29 60.6278 32.6348 64.3067 36.9199 63.23C42.5723 61.8095 47.79 58.8814 51.9814 54.6906C58.0762 48.5956 61.5 40.3291 61.5 31.7095C61.5 23.09 58.0762 14.8235 51.9814 8.72854C47.79 4.53774 42.5723 1.60964 36.9199 0.189108C32.6348 -0.887552 29 2.79128 29 7.20962V17.0376C27.4609 13.9945 25.4375 11.1852 22.9814 8.72854C18.79 4.53774 13.5723 1.60964 7.91992 0.189108Z" fill="#108A31"/>
</svg>
