<svg width="42" height="42" viewBox="0 0 42 42" fill="none" xmlns="http://www.w3.org/2000/svg">
<path d="M0 9.57209C0 4.28557 4.28557 0 9.57209 0H32.4279C37.7144 0 42 4.28557 42 9.57209V32.4279C42 37.7144 37.7144 42 32.4279 42H9.57209C4.28557 42 0 37.7144 0 32.4279V9.57209Z" fill="#1E1E1E"/>
<path d="M12.2093 12.2093C12.2093 9.78182 14.1772 7.81395 16.6047 7.81395H21V16.6047H16.6047C14.1772 16.6047 12.2093 14.6368 12.2093 12.2093Z" fill="#F44E1C"/>
<path d="M29.7907 12.2093C29.7907 14.6368 27.8228 16.6047 25.3953 16.6047L21 16.6047V7.81395L25.3953 7.81396C27.8228 7.81396 29.7907 9.78182 29.7907 12.2093Z" fill="#FF7262"/>
<path d="M29.7907 21C29.7907 23.4275 27.8228 25.3953 25.3953 25.3953C22.9679 25.3953 21 23.4275 21 21C21 18.5725 22.9679 16.6047 25.3953 16.6047C27.8228 16.6047 29.7907 18.5725 29.7907 21Z" fill="#1BBCFF"/>
<path d="M12.2093 21C12.2093 18.5725 14.1772 16.6047 16.6047 16.6047H21V25.3953H16.6047C14.1772 25.3953 12.2093 23.4275 12.2093 21Z" fill="#A259FF"/>
<path d="M12.2093 29.7907C12.2093 27.3632 14.1772 25.3953 16.6047 25.3953H21V29.7907C21 32.2182 19.0321 34.186 16.6047 34.186C14.1772 34.186 12.2093 32.2182 12.2093 29.7907Z" fill="#03D081"/>
</svg>
